<svg width="1080" height="1350" viewBox="0 0 1080 1350" fill="none"
    xmlns="http://www.w3.org/2000/svg">
    <rect width="1080" height="1350" fill="black" fill-opacity="0.5" />
    <path
        d="M412.73 687V649.182H419.581V681.257H436.237V687H412.73ZM454.26 687.554C451.49 687.554 449.089 686.945 447.058 685.726C445.027 684.507 443.451 682.802 442.331 680.611C441.223 678.42 440.669 675.859 440.669 672.929C440.669 669.999 441.223 667.432 442.331 665.229C443.451 663.025 445.027 661.314 447.058 660.095C449.089 658.876 451.49 658.267 454.26 658.267C457.03 658.267 459.43 658.876 461.462 660.095C463.493 661.314 465.063 663.025 466.17 665.229C467.291 667.432 467.851 669.999 467.851 672.929C467.851 675.859 467.291 678.42 466.17 680.611C465.063 682.802 463.493 684.507 461.462 685.726C459.43 686.945 457.03 687.554 454.26 687.554ZM454.297 682.199C455.799 682.199 457.054 681.786 458.064 680.962C459.073 680.125 459.824 679.004 460.317 677.601C460.821 676.197 461.074 674.634 461.074 672.911C461.074 671.175 460.821 669.605 460.317 668.202C459.824 666.786 459.073 665.66 458.064 664.822C457.054 663.985 455.799 663.567 454.297 663.567C452.758 663.567 451.478 663.985 450.456 664.822C449.446 665.66 448.689 666.786 448.185 668.202C447.692 669.605 447.446 671.175 447.446 672.911C447.446 674.634 447.692 676.197 448.185 677.601C448.689 679.004 449.446 680.125 450.456 680.962C451.478 681.786 452.758 682.199 454.297 682.199ZM481.686 687.572C479.889 687.572 478.27 687.252 476.83 686.612C475.402 685.96 474.269 685 473.432 683.732C472.607 682.464 472.195 680.9 472.195 679.041C472.195 677.441 472.49 676.117 473.081 675.071C473.672 674.025 474.479 673.188 475.5 672.56C476.522 671.932 477.673 671.458 478.953 671.138C480.246 670.805 481.582 670.565 482.961 670.418C484.623 670.245 485.971 670.091 487.005 669.956C488.039 669.808 488.79 669.587 489.257 669.291C489.738 668.983 489.978 668.509 489.978 667.869V667.759C489.978 666.367 489.565 665.29 488.74 664.527C487.916 663.764 486.728 663.382 485.176 663.382C483.539 663.382 482.24 663.739 481.28 664.453C480.332 665.167 479.692 666.01 479.36 666.983L473.118 666.097C473.611 664.373 474.423 662.933 475.556 661.776C476.688 660.606 478.073 659.732 479.711 659.153C481.348 658.562 483.158 658.267 485.14 658.267C486.506 658.267 487.866 658.427 489.221 658.747C490.575 659.067 491.812 659.597 492.932 660.335C494.052 661.062 494.951 662.053 495.628 663.308C496.318 664.564 496.662 666.134 496.662 668.017V687H490.236V683.104H490.015C489.608 683.892 489.036 684.63 488.297 685.32C487.571 685.997 486.654 686.545 485.546 686.963C484.45 687.369 483.164 687.572 481.686 687.572ZM483.422 682.661C484.764 682.661 485.927 682.396 486.912 681.866C487.897 681.325 488.654 680.611 489.184 679.724C489.725 678.838 489.996 677.872 489.996 676.825V673.483C489.787 673.655 489.43 673.815 488.925 673.963C488.433 674.111 487.879 674.24 487.263 674.351C486.648 674.462 486.038 674.56 485.435 674.646C484.832 674.732 484.309 674.806 483.865 674.868C482.868 675.003 481.976 675.225 481.188 675.533C480.4 675.84 479.778 676.271 479.323 676.825C478.867 677.367 478.64 678.069 478.64 678.93C478.64 680.161 479.089 681.091 479.988 681.719C480.886 682.347 482.031 682.661 483.422 682.661ZM513.909 687.499C511.681 687.499 509.687 686.926 507.926 685.781C506.166 684.636 504.775 682.974 503.753 680.795C502.731 678.616 502.221 675.97 502.221 672.855C502.221 669.704 502.738 667.045 503.772 664.878C504.818 662.699 506.228 661.055 508 659.947C509.773 658.827 511.749 658.267 513.928 658.267C515.59 658.267 516.956 658.55 518.027 659.116C519.098 659.67 519.948 660.341 520.576 661.129C521.203 661.905 521.69 662.637 522.034 663.327H522.311V649.182H529.015V687H522.441V682.531H522.034C521.69 683.221 521.191 683.953 520.539 684.729C519.886 685.492 519.025 686.144 517.953 686.686C516.882 687.228 515.534 687.499 513.909 687.499ZM515.775 682.014C517.19 682.014 518.397 681.633 519.394 680.869C520.391 680.094 521.148 679.017 521.665 677.638C522.182 676.259 522.441 674.652 522.441 672.818C522.441 670.984 522.182 669.39 521.665 668.036C521.16 666.681 520.409 665.629 519.412 664.878C518.427 664.127 517.215 663.751 515.775 663.751C514.285 663.751 513.042 664.139 512.044 664.915C511.047 665.69 510.296 666.761 509.792 668.128C509.287 669.494 509.034 671.058 509.034 672.818C509.034 674.591 509.287 676.173 509.792 677.564C510.309 678.943 511.066 680.032 512.063 680.832C513.072 681.62 514.31 682.014 515.775 682.014ZM536.138 687V658.636H542.822V687H536.138ZM539.499 654.611C538.44 654.611 537.529 654.26 536.766 653.558C536.002 652.844 535.621 651.989 535.621 650.991C535.621 649.982 536.002 649.126 536.766 648.425C537.529 647.711 538.44 647.354 539.499 647.354C540.57 647.354 541.481 647.711 542.232 648.425C542.995 649.126 543.376 649.982 543.376 650.991C543.376 651.989 542.995 652.844 542.232 653.558C541.481 654.26 540.57 654.611 539.499 654.611ZM556.381 670.381V687H549.696V658.636H556.086V663.456H556.418C557.07 661.868 558.111 660.606 559.539 659.67C560.979 658.735 562.758 658.267 564.875 658.267C566.833 658.267 568.538 658.686 569.99 659.523C571.455 660.36 572.588 661.572 573.388 663.161C574.201 664.749 574.601 666.675 574.588 668.94V687H567.904V669.974C567.904 668.079 567.411 666.595 566.426 665.524C565.454 664.453 564.106 663.918 562.382 663.918C561.213 663.918 560.173 664.176 559.262 664.693C558.363 665.198 557.655 665.93 557.138 666.891C556.633 667.851 556.381 669.014 556.381 670.381ZM593.719 698.227C591.319 698.227 589.257 697.901 587.533 697.249C585.81 696.608 584.425 695.747 583.378 694.663C582.332 693.58 581.605 692.38 581.199 691.062L587.219 689.604C587.49 690.158 587.884 690.705 588.401 691.247C588.918 691.801 589.614 692.257 590.488 692.614C591.374 692.983 592.488 693.168 593.83 693.168C595.726 693.168 597.295 692.706 598.539 691.783C599.782 690.872 600.404 689.37 600.404 687.277V681.903H600.071C599.727 682.593 599.222 683.301 598.557 684.027C597.905 684.753 597.037 685.363 595.953 685.855C594.882 686.348 593.534 686.594 591.909 686.594C589.73 686.594 587.755 686.083 585.982 685.061C584.221 684.027 582.818 682.488 581.772 680.445C580.738 678.389 580.221 675.816 580.221 672.726C580.221 669.611 580.738 666.983 581.772 664.841C582.818 662.687 584.228 661.055 586 659.947C587.773 658.827 589.749 658.267 591.928 658.267C593.59 658.267 594.956 658.55 596.027 659.116C597.111 659.67 597.972 660.341 598.613 661.129C599.253 661.905 599.739 662.637 600.071 663.327H600.441V658.636H607.033V687.462C607.033 689.887 606.454 691.893 605.297 693.482C604.14 695.07 602.558 696.258 600.551 697.045C598.545 697.833 596.267 698.227 593.719 698.227ZM593.775 681.349C595.19 681.349 596.397 681.005 597.394 680.315C598.391 679.626 599.148 678.635 599.665 677.342C600.182 676.05 600.441 674.499 600.441 672.689C600.441 670.904 600.182 669.34 599.665 667.999C599.16 666.657 598.409 665.616 597.412 664.878C596.427 664.127 595.215 663.751 593.775 663.751C592.285 663.751 591.042 664.139 590.044 664.915C589.047 665.69 588.296 666.755 587.792 668.109C587.287 669.451 587.034 670.978 587.034 672.689C587.034 674.425 587.287 675.945 587.792 677.25C588.309 678.543 589.066 679.552 590.063 680.278C591.072 680.992 592.31 681.349 593.775 681.349ZM618.002 687.406C616.882 687.406 615.921 687.012 615.121 686.224C614.321 685.437 613.927 684.476 613.939 683.344C613.927 682.236 614.321 681.288 615.121 680.5C615.921 679.712 616.882 679.318 618.002 679.318C619.085 679.318 620.027 679.712 620.827 680.5C621.64 681.288 622.052 682.236 622.064 683.344C622.052 684.095 621.855 684.778 621.473 685.393C621.104 686.009 620.612 686.501 619.996 686.871C619.393 687.228 618.728 687.406 618.002 687.406ZM633.084 687.406C631.964 687.406 631.003 687.012 630.203 686.224C629.403 685.437 629.009 684.476 629.021 683.344C629.009 682.236 629.403 681.288 630.203 680.5C631.003 679.712 631.964 679.318 633.084 679.318C634.167 679.318 635.109 679.712 635.909 680.5C636.722 681.288 637.134 682.236 637.146 683.344C637.134 684.095 636.937 684.778 636.555 685.393C636.186 686.009 635.694 686.501 635.078 686.871C634.475 687.228 633.81 687.406 633.084 687.406ZM648.166 687.406C647.046 687.406 646.085 687.012 645.285 686.224C644.485 685.437 644.091 684.476 644.103 683.344C644.091 682.236 644.485 681.288 645.285 680.5C646.085 679.712 647.046 679.318 648.166 679.318C649.249 679.318 650.191 679.712 650.991 680.5C651.804 681.288 652.216 682.236 652.228 683.344C652.216 684.095 652.019 684.778 651.637 685.393C651.268 686.009 650.776 686.501 650.16 686.871C649.557 687.228 648.892 687.406 648.166 687.406Z"
        fill="white" />
</svg>